<svg width="110" height="26" viewBox="0 0 110 26" fill="none" xmlns="http://www.w3.org/2000/svg">
<path d="M0.608 26L6.112 0.079998H9.6L15.136 26H11.712L10.528 19.472H5.248L4 26H0.608ZM5.728 16.88H10.048L7.872 5.2L5.728 16.88ZM17.766 26V0.079998H20.23L27.59 17.296V0.079998H30.598V26H28.294L20.838 8.304V26H17.766ZM34.6083 26V7.504H38.0323V26H34.6083ZM34.6083 4.752V1.168H38.0323V4.752H34.6083ZM41.9208 26L42.4008 0.079998H45.9528L50.5288 21.104L55.1368 0.079998H58.6568L59.1368 26H56.2248L55.9368 7.184L51.5528 26H49.5048L45.1528 7.184L44.8648 26H41.9208ZM63.1098 26V0.079998H73.1258V2.672H66.7258V11.312H71.6858V13.872H66.7258V26H63.1098ZM75.6098 26V0.079998H79.2258V23.408H85.8498V26H75.6098ZM88.5205 26V0.079998H92.0725V26H88.5205ZM94.666 26L100.074 12.432L94.762 0.079998H98.122L102.058 9.232L105.642 0.079998H109.002L103.562 12.72L109.258 26H105.898L101.674 16.24L98.026 26H94.666Z" fill="#1C50D5"/>
</svg>
