<svg width="76" height="18" viewBox="0 0 76 18" fill="none" xmlns="http://www.w3.org/2000/svg">
<path d="M0.418 18L4.202 0.179999H6.6L10.406 18H8.052L7.238 13.512H3.608L2.75 18H0.418ZM3.938 11.73H6.908L5.412 3.7L3.938 11.73ZM12.2141 18V0.179999H13.9081L18.9681 12.016V0.179999H21.0361V18H19.4521L14.3261 5.834V18H12.2141ZM23.7932 18V5.284H26.1472V18H23.7932ZM23.7932 3.392V0.927999H26.1472V3.392H23.7932ZM28.8205 18L29.1505 0.179999H31.5925L34.7385 14.634L37.9065 0.179999H40.3265L40.6565 18H38.6545L38.4565 5.064L35.4425 18H34.0345L31.0425 5.064L30.8445 18H28.8205ZM43.388 18V0.179999H50.274V1.962H45.874V7.902H49.284V9.662H45.874V18H43.388ZM51.9817 18V0.179999H54.4677V16.218H59.0217V18H51.9817ZM60.8578 18V0.179999H63.2998V18H60.8578ZM65.0829 18L68.8009 8.672L65.1489 0.179999H67.4589L70.1649 6.472L72.6289 0.179999H74.9389L71.1989 8.87L75.1149 18H72.8049L69.9009 11.29L67.3929 18H65.0829Z" fill="#1C50D5"/>
</svg>
